<?xml version="1.0" standalone="no"?>
<!DOCTYPE svg PUBLIC "-//W3C//DTD SVG 20010904//EN"
 "http://www.w3.org/TR/2001/REC-SVG-20010904/DTD/svg10.dtd">
<svg version="1.0" xmlns="http://www.w3.org/2000/svg"
 width="736.000000pt" height="526.000000pt" viewBox="0 0 736.000000 526.000000"
 preserveAspectRatio="xMidYMid meet">

<g transform="translate(0.000000,526.000000) scale(0.100000,-0.100000)"
fill="#000000" stroke="none">
<path d="M4266 4384 c-232 -74 -303 -359 -132 -530 128 -127 325 -126 454 3
63 64 85 120 86 223 1 74 -3 92 -27 137 -74 142 -237 213 -381 167z"/>
<path d="M5427 4238 l-47 -41 -61 17 c-34 9 -63 15 -65 13 -2 -2 6 -31 18 -65
l22 -60 -30 -44 c-54 -75 -55 -72 22 -64 l69 7 39 -51 c21 -27 41 -50 45 -50
4 0 14 28 22 61 l14 61 55 20 c30 11 58 23 62 27 4 3 -17 22 -47 41 l-55 35 0
68 c0 37 -3 67 -7 66 -5 0 -29 -19 -56 -41z"/>
<path d="M3120 3555 c-174 -30 -324 -84 -470 -171 -284 -168 -508 -445 -603
-749 -41 -131 -59 -232 -64 -372 -6 -140 3 -225 39 -376 16 -71 23 -87 37 -83
673 200 1529 512 2229 813 183 79 292 131 292 140 0 21 -46 108 -104 198 -206
316 -542 537 -915 599 -113 19 -333 20 -441 1z"/>
<path d="M5792 3500 c-206 -17 -509 -71 -822 -145 -158 -38 -498 -127 -558
-146 -36 -12 -35 -12 21 -79 l28 -32 167 45 c383 105 659 152 750 128 113 -31
81 -119 -83 -229 -620 -413 -2845 -1263 -3855 -1470 -289 -60 -399 -64 -447
-16 -32 32 -25 65 25 118 88 91 397 265 785 441 l107 49 0 63 c0 35 -2 63 -5
63 -2 0 -105 -47 -229 -105 -505 -235 -962 -494 -1191 -674 -120 -95 -215
-210 -215 -259 0 -75 192 -106 472 -78 1021 105 3028 775 4408 1472 735 371
1167 703 1051 808 -47 43 -216 62 -409 46z"/>
<path d="M1307 2811 l-47 -40 -65 18 c-36 10 -65 16 -65 13 0 -3 10 -31 21
-64 l22 -58 -37 -55 -36 -55 70 0 70 0 37 -50 c20 -27 39 -47 43 -45 4 2 12
29 19 59 14 63 18 68 89 90 28 10 52 20 52 22 0 2 -25 20 -55 39 l-55 36 0 64
c0 36 -3 65 -8 65 -4 0 -29 -18 -55 -39z"/>
<path d="M6782 2648 l-73 -72 -87 17 c-48 10 -97 20 -109 23 -21 6 -19 -1 23
-94 l47 -100 -52 -90 c-28 -49 -51 -91 -51 -94 0 -2 47 2 105 10 l104 14 55
-60 c31 -32 64 -69 74 -82 l19 -23 12 64 c7 35 17 85 22 110 l10 47 90 37 c49
21 92 41 94 46 3 4 -35 29 -84 55 -59 31 -92 55 -95 69 -3 11 -8 59 -12 108
-4 48 -10 87 -13 87 -3 0 -39 -33 -79 -72z"/>
<path d="M4668 2339 c-40 -23 -452 -199 -663 -284 -541 -218 -1132 -428 -1630
-580 -66 -20 -126 -38 -133 -41 -19 -6 60 -104 160 -200 181 -171 402 -289
648 -345 114 -26 341 -36 462 -19 307 42 617 200 818 418 223 241 348 541 366
882 7 126 -3 183 -28 169z"/>
<path d="M5681 1965 c-238 -67 -393 -303 -352 -535 50 -277 318 -454 584 -385
167 43 299 171 342 329 24 87 17 228 -15 308 -45 114 -158 223 -279 269 -74
28 -206 35 -280 14z"/>
</g>
</svg>
